<svg width="24" height="24" viewBox="0 0 24 24" fill="none" xmlns="http://www.w3.org/2000/svg">
<path d="M21.0038 7.99832H2.99625" stroke="#323232" stroke-width="1.5" stroke-linecap="round" stroke-linejoin="round"/>
<path d="M22.0042 17.5023C22.0042 19.9886 19.9886 22.0042 17.5023 22.0042C15.016 22.0042 13.0004 19.9886 13.0004 17.5023C13.0004 15.016 15.016 13.0004 17.5023 13.0004C18.6963 13.0004 19.8413 13.4747 20.6856 14.319C21.5299 15.1633 22.0042 16.3083 22.0042 17.5023" stroke="#323232" stroke-width="1.5" stroke-linecap="round" stroke-linejoin="round"/>
<path d="M14.6741 21.0037H5.9975C4.33996 21.0037 2.99625 19.66 2.99625 18.0025V5.9975C2.99625 4.33995 4.33996 2.99625 5.9975 2.99625H18.0025C19.66 2.99625 21.0038 4.33995 21.0038 5.9975V14.6741" stroke="#323232" stroke-width="1.5" stroke-linecap="round" stroke-linejoin="round"/>
<path d="M18.5027 17.2522L17.5023 18.2526L16.5019 17.2522" stroke="#323232" stroke-width="1.5" stroke-linecap="round" stroke-linejoin="round"/>
<path d="M6.79683 11.4998C6.79683 11.5274 6.77444 11.5498 6.74681 11.5498C6.71919 11.5498 6.69679 11.5274 6.69679 11.4998C6.69679 11.4722 6.71919 11.4498 6.74681 11.4498" stroke="#323232" stroke-width="1.5" stroke-linecap="round" stroke-linejoin="round"/>
<path d="M6.74681 11.4498C6.77444 11.4498 6.79683 11.4722 6.79683 11.4998" stroke="#323232" stroke-width="1.5" stroke-linecap="round" stroke-linejoin="round"/>
<path d="M10.2993 11.4998C10.2993 11.5274 10.2769 11.5498 10.2493 11.5498C10.2217 11.5498 10.1993 11.5274 10.1993 11.4998C10.1993 11.4722 10.2217 11.4498 10.2493 11.4498" stroke="#323232" stroke-width="1.5" stroke-linecap="round" stroke-linejoin="round"/>
<path d="M10.2493 11.4498C10.2769 11.4498 10.2993 11.4722 10.2993 11.4998" stroke="#323232" stroke-width="1.5" stroke-linecap="round" stroke-linejoin="round"/>
<path d="M13.7998 11.4998C13.7998 11.5274 13.7774 11.5498 13.7497 11.5498C13.7221 11.5498 13.6997 11.5274 13.6997 11.4998C13.6997 11.4722 13.7221 11.4498 13.7497 11.4498" stroke="#323232" stroke-width="1.5" stroke-linecap="round" stroke-linejoin="round"/>
<path d="M13.7497 11.4498C13.7774 11.4498 13.7998 11.4722 13.7998 11.4998" stroke="#323232" stroke-width="1.5" stroke-linecap="round" stroke-linejoin="round"/>
<path d="M6.79683 14.501C6.79683 14.5287 6.77444 14.5511 6.74681 14.5511C6.71919 14.5511 6.69679 14.5287 6.69679 14.501C6.69679 14.4734 6.71919 14.451 6.74681 14.451" stroke="#323232" stroke-width="1.5" stroke-linecap="round" stroke-linejoin="round"/>
<path d="M6.74681 14.451C6.77444 14.451 6.79683 14.4734 6.79683 14.501" stroke="#323232" stroke-width="1.5" stroke-linecap="round" stroke-linejoin="round"/>
<path d="M10.2993 14.501C10.2993 14.5287 10.2769 14.5511 10.2493 14.5511C10.2217 14.5511 10.1993 14.5287 10.1993 14.501C10.1993 14.4734 10.2217 14.451 10.2493 14.451" stroke="#323232" stroke-width="1.5" stroke-linecap="round" stroke-linejoin="round"/>
<path d="M10.2493 14.451C10.2769 14.451 10.2993 14.4734 10.2993 14.501" stroke="#323232" stroke-width="1.5" stroke-linecap="round" stroke-linejoin="round"/>
<path d="M6.79683 17.5023C6.79683 17.5299 6.77444 17.5523 6.74681 17.5523C6.71919 17.5523 6.69679 17.5299 6.69679 17.5023C6.69679 17.4747 6.71919 17.4523 6.74681 17.4523" stroke="#323232" stroke-width="1.5" stroke-linecap="round" stroke-linejoin="round"/>
<path d="M6.74681 17.4523C6.77444 17.4523 6.79683 17.4747 6.79683 17.5023" stroke="#323232" stroke-width="1.5" stroke-linecap="round" stroke-linejoin="round"/>
<path d="M10.2993 17.5023C10.2993 17.5299 10.2769 17.5523 10.2493 17.5523C10.2217 17.5523 10.1993 17.5299 10.1993 17.5023C10.1993 17.4747 10.2217 17.4523 10.2493 17.4523" stroke="#323232" stroke-width="1.5" stroke-linecap="round" stroke-linejoin="round"/>
<path d="M10.2493 17.4523C10.2769 17.4523 10.2993 17.4747 10.2993 17.5023" stroke="#323232" stroke-width="1.5" stroke-linecap="round" stroke-linejoin="round"/>
</svg>
