<svg width="24" height="24" viewBox="0 0 24 24" fill="none" xmlns="http://www.w3.org/2000/svg">
<circle cx="12" cy="12" r="9.50396" stroke="#323232" stroke-width="1.5" stroke-linecap="round" stroke-linejoin="round"/>
<path fill-rule="evenodd" clip-rule="evenodd" d="M11.1028 8.24003C11.2713 7.89846 11.6191 7.68219 12 7.68219C12.3808 7.68219 12.7287 7.89846 12.8972 8.24003L13.5131 9.48871C13.6588 9.78405 13.9406 9.98877 14.2665 10.0361L15.6442 10.2364C16.021 10.2912 16.334 10.555 16.4517 10.9171C16.5695 11.2792 16.4714 11.6767 16.1989 11.9426L15.2016 12.9153C14.9659 13.1451 14.8584 13.4762 14.9141 13.8006L15.1495 15.1726C15.2138 15.5479 15.0596 15.9272 14.7515 16.151C14.4435 16.3749 14.0351 16.4044 13.698 16.2273L12.4654 15.5794C12.174 15.4263 11.826 15.4263 11.5346 15.5794L10.302 16.2273C9.96491 16.4044 9.5565 16.3749 9.24846 16.151C8.94041 15.9272 8.78615 15.5479 8.85053 15.1726L9.08589 13.8006C9.14154 13.4762 9.03404 13.1451 8.7984 12.9153L7.80113 11.9426C7.52857 11.6767 7.43054 11.2792 7.54824 10.9171C7.66595 10.555 7.97898 10.2912 8.35576 10.2364L9.73353 10.0361C10.0594 9.98877 10.3411 9.78405 10.4868 9.48871L11.1028 8.24003Z" stroke="#323232" stroke-width="1.5" stroke-linecap="round" stroke-linejoin="round"/>
</svg>
