<svg width="24" height="24" viewBox="0 0 24 24" fill="none" xmlns="http://www.w3.org/2000/svg">
<path fill-rule="evenodd" clip-rule="evenodd" d="M17.8 21H6.2C4.433 21 3 19.567 3 17.8V6.2C3 4.433 4.433 3 6.2 3H17.8C19.567 3 21 4.433 21 6.2V17.8C21 19.567 19.567 21 17.8 21Z" stroke="#323232" stroke-width="1.5" stroke-linecap="round" stroke-linejoin="round"/>
<path fill-rule="evenodd" clip-rule="evenodd" d="M17.8 21H6.2C4.433 21 3 19.567 3 17.8V6.2C3 4.433 4.433 3 6.2 3H17.8C19.567 3 21 4.433 21 6.2V17.8C21 19.567 19.567 21 17.8 21Z" stroke="#323232" stroke-width="1.5" stroke-linecap="round" stroke-linejoin="round"/>
<path d="M11.25 12.419L8.875 7.66901L6.5 12.419" stroke="#323232" stroke-width="1.5" stroke-linecap="round" stroke-linejoin="round"/>
<path d="M6.91901 11.581H10.831" stroke="#323232" stroke-width="1.5" stroke-linecap="round" stroke-linejoin="round"/>
<path d="M13.937 11.581H17.5L13.937 16.331H17.5" stroke="#323232" stroke-width="1.5" stroke-linecap="round" stroke-linejoin="round"/>
</svg>
