<svg width="65" height="11" viewBox="0 0 65 11" fill="none" xmlns="http://www.w3.org/2000/svg">
<path d="M0 3.4375H5.39678V4.8125H1.53487V10.8527H0V3.4375Z" fill="black"/>
<path d="M13.8633 3.4375V10.8527H12.3285V10.3616C11.8829 10.7545 11.2392 10.9509 10.546 10.9509C8.91216 11 7.92192 9.96875 7.92192 8.34822C7.92192 6.77679 8.96167 5.74554 10.546 5.74554C11.2887 5.74554 11.8829 5.94197 12.3285 6.33482V4.71429H7.22876V3.3884H13.8633V3.4375ZM12.477 8.34822C12.477 7.5625 11.8829 7.07143 10.9421 7.07143C10.0014 7.07143 9.40728 7.5625 9.40728 8.34822C9.40728 9.13393 10.0014 9.625 10.9421 9.625C11.8829 9.625 12.477 9.13393 12.477 8.34822Z" fill="black"/>
<path d="M22.1813 0V10.8527H20.6464V10.1161C20.1513 10.6562 19.4582 10.9509 18.6165 10.9509C16.7845 10.9509 15.6458 9.42857 15.6458 7.12053C15.6458 4.8125 16.834 3.29018 18.6165 3.29018C19.4582 3.29018 20.1018 3.58482 20.6464 4.125V0H22.1813ZM20.795 7.16964C20.795 5.64732 20.1018 4.71428 19.0126 4.71428C17.9233 4.71428 17.2301 5.69643 17.2301 7.16964C17.2301 8.64285 17.9233 9.625 19.0126 9.625C20.1018 9.625 20.795 8.69196 20.795 7.16964Z" fill="black"/>
<path d="M31.1925 9.47768V10.8527H23.9637V9.47768H26.7859V4.8125H23.9637V3.4375H28.3208V9.47768H31.1925ZM26.8354 0H28.3703V1.91518H26.8354V0Z" fill="black"/>
<path d="M34.3611 4.76343H31.8856V3.43753H34.3611V0.982178H35.896V3.43753H39.6589V4.76343H35.896V9.47771H38.8172V10.8527H34.3611V4.76343Z" fill="black"/>
<path d="M42.5802 3.4375V9.47768H45.6499V3.4375H47.1848V10.8527H41.0453V3.4375H42.5802Z" fill="black"/>
<path d="M55.8493 7.16964C55.8493 9.52678 54.661 11 52.8786 11C52.0369 11 51.3932 10.7054 50.8486 10.1652V10.9018H49.3137V0H50.8486V4.17411C51.3437 3.63393 52.0369 3.33929 52.8786 3.33929C54.7105 3.29018 55.8493 4.8125 55.8493 7.16964ZM54.3639 7.16964C54.3639 5.64732 53.6708 4.71428 52.5815 4.71428C51.4922 4.71428 50.7991 5.69643 50.7991 7.16964C50.7991 8.64285 51.4922 9.625 52.5815 9.625C53.6708 9.625 54.3639 8.69196 54.3639 7.16964Z" fill="black"/>
<path d="M62.6324 8.44641L63.8702 9.1339C63.3255 10.2634 62.1373 11 60.8004 11C58.6219 11 57.2356 9.47765 57.2356 7.16962C57.2356 4.86158 58.5724 3.33926 60.7014 3.33926C62.8304 3.33926 64.1673 5.05801 64.1673 7.75891H58.82C58.9685 8.93748 59.7112 9.67408 60.8004 9.67408C61.6421 9.62498 62.3353 9.18301 62.6324 8.44641ZM58.82 6.53123H62.6324C62.4343 5.40176 61.7412 4.66516 60.7509 4.66516C59.7607 4.66516 59.018 5.40176 58.82 6.53123Z" fill="black"/>
</svg>
